<?xml version="1.0" encoding="UTF-8" standalone="no"?>
<!DOCTYPE svg PUBLIC "-//W3C//DTD SVG 1.1//EN"
 "http://www.w3.org/Graphics/SVG/1.1/DTD/svg11.dtd">
<!-- Generated by graphviz version 2.43.0 (0)
 -->
<!-- Title: dependency&#45;cruiser output Pages: 1 -->
<svg width="793pt" height="694pt"
 viewBox="0.00 0.00 793.00 694.00" xmlns="http://www.w3.org/2000/svg" xmlns:xlink="http://www.w3.org/1999/xlink">
<g id="graph0" class="graph" transform="scale(1 1) rotate(0) translate(4 690)">
<title>dependency&#45;cruiser output</title>
<polygon fill="white" stroke="transparent" points="-4,4 -4,-690 789,-690 789,4 -4,4"/>
<g id="clust1" class="cluster">
<title>cluster_src</title>
<path fill="#ffffff" stroke="black" stroke-width="2" d="M20,-8C20,-8 765,-8 765,-8 771,-8 777,-14 777,-20 777,-20 777,-666 777,-666 777,-672 771,-678 765,-678 765,-678 20,-678 20,-678 14,-678 8,-672 8,-666 8,-666 8,-20 8,-20 8,-14 14,-8 20,-8"/>
<text text-anchor="middle" x="392.5" y="-666.8" font-family="Helvetica,sans-Serif" font-weight="bold" font-size="9.00">src</text>
</g>
<g id="clust2" class="cluster">
<title>cluster_src/components</title>
<path fill="#ffffff" stroke="black" stroke-width="2" d="M320,-26C320,-26 693,-26 693,-26 699,-26 705,-32 705,-38 705,-38 705,-516 705,-516 705,-522 699,-528 693,-528 693,-528 320,-528 320,-528 314,-528 308,-522 308,-516 308,-516 308,-38 308,-38 308,-32 314,-26 320,-26"/>
<text text-anchor="middle" x="506.5" y="-516.8" font-family="Helvetica,sans-Serif" font-weight="bold" font-size="9.00">components</text>
</g>
<g id="clust3" class="cluster">
<title>cluster_src/components/Config</title>
<path fill="#ffffff" stroke="black" stroke-width="2" d="M433,-214C433,-214 479,-214 479,-214 485,-214 491,-220 491,-226 491,-226 491,-254 491,-254 491,-260 485,-266 479,-266 479,-266 433,-266 433,-266 427,-266 421,-260 421,-254 421,-254 421,-226 421,-226 421,-220 427,-214 433,-214"/>
<text text-anchor="middle" x="456" y="-254.8" font-family="Helvetica,sans-Serif" font-weight="bold" font-size="9.00">Config</text>
</g>
<g id="clust4" class="cluster">
<title>cluster_src/components/Examen</title>
<path fill="#ffffff" stroke="black" stroke-width="2" d="M433,-34C433,-34 479,-34 479,-34 485,-34 491,-40 491,-46 491,-46 491,-74 491,-74 491,-80 485,-86 479,-86 479,-86 433,-86 433,-86 427,-86 421,-80 421,-74 421,-74 421,-46 421,-46 421,-40 427,-34 433,-34"/>
<text text-anchor="middle" x="456" y="-74.8" font-family="Helvetica,sans-Serif" font-weight="bold" font-size="9.00">Examen</text>
</g>
<g id="clust5" class="cluster">
<title>cluster_src/components/Game</title>
<path fill="#ffffff" stroke="black" stroke-width="2" d="M433,-94C433,-94 479,-94 479,-94 485,-94 491,-100 491,-106 491,-106 491,-134 491,-134 491,-140 485,-146 479,-146 479,-146 433,-146 433,-146 427,-146 421,-140 421,-134 421,-134 421,-106 421,-106 421,-100 427,-94 433,-94"/>
<text text-anchor="middle" x="456" y="-134.8" font-family="Helvetica,sans-Serif" font-weight="bold" font-size="9.00">Game</text>
</g>
<g id="clust6" class="cluster">
<title>cluster_src/components/Home</title>
<path fill="#ffffff" stroke="black" stroke-width="2" d="M329,-334C329,-334 479,-334 479,-334 485,-334 491,-340 491,-346 491,-346 491,-374 491,-374 491,-380 485,-386 479,-386 479,-386 329,-386 329,-386 323,-386 317,-380 317,-374 317,-374 317,-346 317,-346 317,-340 323,-334 329,-334"/>
<text text-anchor="middle" x="404" y="-374.8" font-family="Helvetica,sans-Serif" font-weight="bold" font-size="9.00">Home</text>
</g>
<g id="clust7" class="cluster">
<title>cluster_src/components/Leaderboard</title>
<path fill="#ffffff" stroke="black" stroke-width="2" d="M427,-154C427,-154 485,-154 485,-154 491,-154 497,-160 497,-166 497,-166 497,-194 497,-194 497,-200 491,-206 485,-206 485,-206 427,-206 427,-206 421,-206 415,-200 415,-194 415,-194 415,-166 415,-166 415,-160 421,-154 427,-154"/>
<text text-anchor="middle" x="456" y="-194.8" font-family="Helvetica,sans-Serif" font-weight="bold" font-size="9.00">Leaderboard</text>
</g>
<g id="clust8" class="cluster">
<title>cluster_src/components/Login</title>
<path fill="#ffffff" stroke="black" stroke-width="2" d="M329,-394C329,-394 375,-394 375,-394 381,-394 387,-400 387,-406 387,-406 387,-434 387,-434 387,-440 381,-446 375,-446 375,-446 329,-446 329,-446 323,-446 317,-440 317,-434 317,-434 317,-406 317,-406 317,-400 323,-394 329,-394"/>
<text text-anchor="middle" x="352" y="-434.8" font-family="Helvetica,sans-Serif" font-weight="bold" font-size="9.00">Login</text>
</g>
<g id="clust9" class="cluster">
<title>cluster_src/components/Panel</title>
<path fill="#ffffff" stroke="black" stroke-width="2" d="M536.5,-199C536.5,-199 685,-199 685,-199 691,-199 697,-205 697,-211 697,-211 697,-269 697,-269 697,-275 691,-281 685,-281 685,-281 536.5,-281 536.5,-281 530.5,-281 524.5,-275 524.5,-269 524.5,-269 524.5,-211 524.5,-211 524.5,-205 530.5,-199 536.5,-199"/>
<text text-anchor="middle" x="610.75" y="-269.8" font-family="Helvetica,sans-Serif" font-weight="bold" font-size="9.00">Panel</text>
</g>
<g id="clust10" class="cluster">
<title>cluster_src/components/Stats</title>
<path fill="#ffffff" stroke="black" stroke-width="2" d="M329,-274C329,-274 479,-274 479,-274 485,-274 491,-280 491,-286 491,-286 491,-314 491,-314 491,-320 485,-326 479,-326 479,-326 329,-326 329,-326 323,-326 317,-320 317,-314 317,-314 317,-286 317,-286 317,-280 323,-274 329,-274"/>
<text text-anchor="middle" x="404" y="-314.8" font-family="Helvetica,sans-Serif" font-weight="bold" font-size="9.00">Stats</text>
</g>
<g id="clust11" class="cluster">
<title>cluster_src/store</title>
<path fill="#ffffff" stroke="black" stroke-width="2" d="M329,-536C329,-536 687,-536 687,-536 693,-536 699,-542 699,-548 699,-548 699,-640 699,-640 699,-646 693,-652 687,-652 687,-652 329,-652 329,-652 323,-652 317,-646 317,-640 317,-640 317,-548 317,-548 317,-542 323,-536 329,-536"/>
<text text-anchor="middle" x="508" y="-640.8" font-family="Helvetica,sans-Serif" font-weight="bold" font-size="9.00">store</text>
</g>
<g id="clust12" class="cluster">
<title>cluster_src/store/account</title>
<path fill="#ffffff" stroke="black" stroke-width="2" d="M533,-544C533,-544 679,-544 679,-544 685,-544 691,-550 691,-556 691,-556 691,-614 691,-614 691,-620 685,-626 679,-626 679,-626 533,-626 533,-626 527,-626 521,-620 521,-614 521,-614 521,-556 521,-556 521,-550 527,-544 533,-544"/>
<text text-anchor="middle" x="606" y="-614.8" font-family="Helvetica,sans-Serif" font-weight="bold" font-size="9.00">account</text>
</g>
<!-- src/App.js -->
<g id="node1" class="node">
<title>src/App.js</title>
<g id="a_node1"><a xlink:href="src/App.js" xlink:title="App.js">
<path fill="#ffffcc" stroke="black" d="M177.5,-513C177.5,-513 135.5,-513 135.5,-513 132.5,-513 129.5,-510 129.5,-507 129.5,-507 129.5,-501 129.5,-501 129.5,-498 132.5,-495 135.5,-495 135.5,-495 177.5,-495 177.5,-495 180.5,-495 183.5,-498 183.5,-501 183.5,-501 183.5,-507 183.5,-507 183.5,-510 180.5,-513 177.5,-513"/>
<text text-anchor="middle" x="156.5" y="-501.8" font-family="Helvetica,sans-Serif" font-size="9.00">App.js</text>
</a>
</g>
</g>
<!-- src/components/Layout.js -->
<g id="node2" class="node">
<title>src/components/Layout.js</title>
<g id="a_node2"><a xlink:href="src/components/Layout.js" xlink:title="Layout.js">
<path fill="#ffffcc" stroke="black" d="M374.5,-502C374.5,-502 329.5,-502 329.5,-502 326.5,-502 323.5,-499 323.5,-496 323.5,-496 323.5,-490 323.5,-490 323.5,-487 326.5,-484 329.5,-484 329.5,-484 374.5,-484 374.5,-484 377.5,-484 380.5,-487 380.5,-490 380.5,-490 380.5,-496 380.5,-496 380.5,-499 377.5,-502 374.5,-502"/>
<text text-anchor="middle" x="352" y="-490.8" font-family="Helvetica,sans-Serif" font-size="9.00">Layout.js</text>
</a>
</g>
</g>
<!-- src/App.js&#45;&gt;src/components/Layout.js -->
<g id="edge1" class="edge">
<title>src/App.js&#45;&gt;src/components/Layout.js</title>
<path fill="none" stroke="#000000" stroke-width="2" stroke-opacity="0.200000" d="M183.6,-502.52C218.12,-500.55 279.03,-497.09 317.08,-494.93"/>
<polygon fill="#000000" fill-opacity="0.200000" stroke="#000000" stroke-width="2" stroke-opacity="0.200000" points="317.58,-497 323.45,-494.57 317.34,-492.81 317.58,-497"/>
</g>
<!-- src/custom.css -->
<g id="node3" class="node">
<title>src/custom.css</title>
<g id="a_node3"><a xlink:href="src/custom.css" xlink:title="custom.css">
<path fill="#ffffcc" stroke="black" d="M294,-524C294,-524 238,-524 238,-524 235,-524 232,-521 232,-518 232,-518 232,-512 232,-512 232,-509 235,-506 238,-506 238,-506 294,-506 294,-506 297,-506 300,-509 300,-512 300,-512 300,-518 300,-518 300,-521 297,-524 294,-524"/>
<text text-anchor="middle" x="266" y="-512.8" font-family="Helvetica,sans-Serif" font-size="9.00">custom.css</text>
</a>
</g>
</g>
<!-- src/App.js&#45;&gt;src/custom.css -->
<g id="edge2" class="edge">
<title>src/App.js&#45;&gt;src/custom.css</title>
<path fill="none" stroke="#000000" stroke-width="2" stroke-opacity="0.200000" d="M183.52,-506.66C196.13,-507.95 211.54,-509.53 225.56,-510.96"/>
<polygon fill="#000000" fill-opacity="0.200000" stroke="#000000" stroke-width="2" stroke-opacity="0.200000" points="225.7,-513.09 231.88,-511.61 226.13,-508.91 225.7,-513.09"/>
</g>
<!-- src/Routes.js -->
<g id="node4" class="node">
<title>src/Routes.js</title>
<g id="a_node4"><a xlink:href="src/Routes.js" xlink:title="Routes.js">
<path fill="#ffffcc" stroke="black" d="M288.5,-278C288.5,-278 243.5,-278 243.5,-278 240.5,-278 237.5,-275 237.5,-272 237.5,-272 237.5,-266 237.5,-266 237.5,-263 240.5,-260 243.5,-260 243.5,-260 288.5,-260 288.5,-260 291.5,-260 294.5,-263 294.5,-266 294.5,-266 294.5,-272 294.5,-272 294.5,-275 291.5,-278 288.5,-278"/>
<text text-anchor="middle" x="266" y="-266.8" font-family="Helvetica,sans-Serif" font-size="9.00">Routes.js</text>
</a>
</g>
</g>
<!-- src/App.js&#45;&gt;src/Routes.js -->
<g id="edge3" class="edge">
<title>src/App.js&#45;&gt;src/Routes.js</title>
<path fill="none" stroke="#000000" stroke-width="2" stroke-opacity="0.200000" d="M161.71,-494.79C178.14,-458.88 237.95,-328.13 258.23,-283.81"/>
<polygon fill="#000000" fill-opacity="0.200000" stroke="#000000" stroke-width="2" stroke-opacity="0.200000" points="260.23,-284.48 260.82,-278.15 256.41,-282.73 260.23,-284.48"/>
</g>
<!-- src/components/Config/index.js -->
<g id="node6" class="node">
<title>src/components/Config/index.js</title>
<g id="a_node6"><a xlink:href="src/components/Config/index.js" xlink:title="index.js">
<path fill="#ffffcc" stroke="black" d="M477,-240C477,-240 435,-240 435,-240 432,-240 429,-237 429,-234 429,-234 429,-228 429,-228 429,-225 432,-222 435,-222 435,-222 477,-222 477,-222 480,-222 483,-225 483,-228 483,-228 483,-234 483,-234 483,-237 480,-240 477,-240"/>
<text text-anchor="middle" x="456" y="-228.8" font-family="Helvetica,sans-Serif" font-size="9.00">index.js</text>
</a>
</g>
</g>
<!-- src/Routes.js&#45;&gt;src/components/Config/index.js -->
<g id="edge5" class="edge">
<title>src/Routes.js&#45;&gt;src/components/Config/index.js</title>
<path fill="none" stroke="#000000" stroke-width="2" stroke-opacity="0.200000" d="M294.74,-263.39C328.92,-256.48 386.88,-244.77 422.94,-237.48"/>
<polygon fill="#000000" fill-opacity="0.200000" stroke="#000000" stroke-width="2" stroke-opacity="0.200000" points="423.5,-239.51 428.96,-236.26 422.67,-235.39 423.5,-239.51"/>
</g>
<!-- src/components/Examen/index.js -->
<g id="node7" class="node">
<title>src/components/Examen/index.js</title>
<g id="a_node7"><a xlink:href="src/components/Examen/index.js" xlink:title="index.js">
<path fill="#ffffcc" stroke="black" d="M477,-60C477,-60 435,-60 435,-60 432,-60 429,-57 429,-54 429,-54 429,-48 429,-48 429,-45 432,-42 435,-42 435,-42 477,-42 477,-42 480,-42 483,-45 483,-48 483,-48 483,-54 483,-54 483,-57 480,-60 477,-60"/>
<text text-anchor="middle" x="456" y="-48.8" font-family="Helvetica,sans-Serif" font-size="9.00">index.js</text>
</a>
</g>
</g>
<!-- src/Routes.js&#45;&gt;src/components/Examen/index.js -->
<g id="edge6" class="edge">
<title>src/Routes.js&#45;&gt;src/components/Examen/index.js</title>
<path fill="none" stroke="#000000" stroke-width="2" stroke-opacity="0.200000" d="M267.65,-259.7C269.7,-236.67 277.82,-176.11 308,-138 338.07,-100.03 389.61,-75.1 422.98,-62.02"/>
<polygon fill="#000000" fill-opacity="0.200000" stroke="#000000" stroke-width="2" stroke-opacity="0.200000" points="424.14,-63.82 428.99,-59.72 422.64,-59.9 424.14,-63.82"/>
</g>
<!-- src/components/FetchData.js -->
<g id="node8" class="node">
<title>src/components/FetchData.js</title>
<g id="a_node8"><a xlink:href="src/components/FetchData.js" xlink:title="FetchData.js">
<path fill="#ffffcc" stroke="black" d="M382,-472C382,-472 322,-472 322,-472 319,-472 316,-469 316,-466 316,-466 316,-460 316,-460 316,-457 319,-454 322,-454 322,-454 382,-454 382,-454 385,-454 388,-457 388,-460 388,-460 388,-466 388,-466 388,-469 385,-472 382,-472"/>
<text text-anchor="middle" x="352" y="-460.8" font-family="Helvetica,sans-Serif" font-size="9.00">FetchData.js</text>
</a>
</g>
</g>
<!-- src/Routes.js&#45;&gt;src/components/FetchData.js -->
<g id="edge7" class="edge">
<title>src/Routes.js&#45;&gt;src/components/FetchData.js</title>
<path fill="none" stroke="#000000" stroke-width="2" stroke-opacity="0.200000" d="M267.88,-278.02C271.28,-310.81 284.44,-423.2 308,-449 308.83,-449.91 309.73,-450.77 310.67,-451.57"/>
<polygon fill="#000000" fill-opacity="0.200000" stroke="#000000" stroke-width="2" stroke-opacity="0.200000" points="309.63,-453.4 315.75,-455.11 312.03,-449.96 309.63,-453.4"/>
</g>
<!-- src/components/Game/index.js -->
<g id="node9" class="node">
<title>src/components/Game/index.js</title>
<g id="a_node9"><a xlink:href="src/components/Game/index.js" xlink:title="index.js">
<path fill="#ffffcc" stroke="black" d="M477,-120C477,-120 435,-120 435,-120 432,-120 429,-117 429,-114 429,-114 429,-108 429,-108 429,-105 432,-102 435,-102 435,-102 477,-102 477,-102 480,-102 483,-105 483,-108 483,-108 483,-114 483,-114 483,-117 480,-120 477,-120"/>
<text text-anchor="middle" x="456" y="-108.8" font-family="Helvetica,sans-Serif" font-size="9.00">index.js</text>
</a>
</g>
</g>
<!-- src/Routes.js&#45;&gt;src/components/Game/index.js -->
<g id="edge8" class="edge">
<title>src/Routes.js&#45;&gt;src/components/Game/index.js</title>
<path fill="none" stroke="#000000" stroke-width="2" stroke-opacity="0.200000" d="M270.53,-259.73C276.46,-245.15 289.58,-216.62 308,-198 342.75,-162.87 394.54,-136.61 426.47,-122.56"/>
<polygon fill="#000000" fill-opacity="0.200000" stroke="#000000" stroke-width="2" stroke-opacity="0.200000" points="427.52,-124.4 432.19,-120.08 425.85,-120.54 427.52,-124.4"/>
</g>
<!-- src/components/Home/index.js -->
<g id="node10" class="node">
<title>src/components/Home/index.js</title>
<g id="a_node10"><a xlink:href="src/components/Home/index.js" xlink:title="index.js">
<path fill="#ffffcc" stroke="black" d="M373,-360C373,-360 331,-360 331,-360 328,-360 325,-357 325,-354 325,-354 325,-348 325,-348 325,-345 328,-342 331,-342 331,-342 373,-342 373,-342 376,-342 379,-345 379,-348 379,-348 379,-354 379,-354 379,-357 376,-360 373,-360"/>
<text text-anchor="middle" x="352" y="-348.8" font-family="Helvetica,sans-Serif" font-size="9.00">index.js</text>
</a>
</g>
</g>
<!-- src/Routes.js&#45;&gt;src/components/Home/index.js -->
<g id="edge9" class="edge">
<title>src/Routes.js&#45;&gt;src/components/Home/index.js</title>
<path fill="none" stroke="#000000" stroke-width="2" stroke-opacity="0.200000" d="M271.41,-278.18C277.91,-290.95 291.15,-314.16 308,-329 312.34,-332.83 317.47,-336.19 322.64,-339.06"/>
<polygon fill="#000000" fill-opacity="0.200000" stroke="#000000" stroke-width="2" stroke-opacity="0.200000" points="321.95,-341.07 328.24,-341.98 323.89,-337.34 321.95,-341.07"/>
</g>
<!-- src/components/Leaderboard/index.js -->
<g id="node11" class="node">
<title>src/components/Leaderboard/index.js</title>
<g id="a_node11"><a xlink:href="src/components/Leaderboard/index.js" xlink:title="index.js">
<path fill="#ffffcc" stroke="black" d="M477,-180C477,-180 435,-180 435,-180 432,-180 429,-177 429,-174 429,-174 429,-168 429,-168 429,-165 432,-162 435,-162 435,-162 477,-162 477,-162 480,-162 483,-165 483,-168 483,-168 483,-174 483,-174 483,-177 480,-180 477,-180"/>
<text text-anchor="middle" x="456" y="-168.8" font-family="Helvetica,sans-Serif" font-size="9.00">index.js</text>
</a>
</g>
</g>
<!-- src/Routes.js&#45;&gt;src/components/Leaderboard/index.js -->
<g id="edge10" class="edge">
<title>src/Routes.js&#45;&gt;src/components/Leaderboard/index.js</title>
<path fill="none" stroke="#000000" stroke-width="2" stroke-opacity="0.200000" d="M280.02,-259.79C287.94,-254.35 298.36,-247.47 308,-242 348.9,-218.79 398.54,-195.84 428.41,-182.56"/>
<polygon fill="#000000" fill-opacity="0.200000" stroke="#000000" stroke-width="2" stroke-opacity="0.200000" points="429.47,-184.39 434.11,-180.04 427.77,-180.55 429.47,-184.39"/>
</g>
<!-- src/components/Login/index.js -->
<g id="node12" class="node">
<title>src/components/Login/index.js</title>
<g id="a_node12"><a xlink:href="src/components/Login/index.js" xlink:title="index.js">
<path fill="#ffffcc" stroke="black" d="M373,-420C373,-420 331,-420 331,-420 328,-420 325,-417 325,-414 325,-414 325,-408 325,-408 325,-405 328,-402 331,-402 331,-402 373,-402 373,-402 376,-402 379,-405 379,-408 379,-408 379,-414 379,-414 379,-417 376,-420 373,-420"/>
<text text-anchor="middle" x="352" y="-408.8" font-family="Helvetica,sans-Serif" font-size="9.00">index.js</text>
</a>
</g>
</g>
<!-- src/Routes.js&#45;&gt;src/components/Login/index.js -->
<g id="edge11" class="edge">
<title>src/Routes.js&#45;&gt;src/components/Login/index.js</title>
<path fill="none" stroke="#000000" stroke-width="2" stroke-opacity="0.200000" d="M267.82,-278.28C270.19,-300.1 278.89,-355.38 308,-389 311.39,-392.92 315.65,-396.23 320.17,-398.99"/>
<polygon fill="#000000" fill-opacity="0.200000" stroke="#000000" stroke-width="2" stroke-opacity="0.200000" points="319.28,-400.9 325.54,-401.99 321.33,-397.24 319.28,-400.9"/>
</g>
<!-- src/components/Stats/index.js -->
<g id="node13" class="node">
<title>src/components/Stats/index.js</title>
<g id="a_node13"><a xlink:href="src/components/Stats/index.js" xlink:title="index.js">
<path fill="#ffffcc" stroke="black" d="M373,-300C373,-300 331,-300 331,-300 328,-300 325,-297 325,-294 325,-294 325,-288 325,-288 325,-285 328,-282 331,-282 331,-282 373,-282 373,-282 376,-282 379,-285 379,-288 379,-288 379,-294 379,-294 379,-297 376,-300 373,-300"/>
<text text-anchor="middle" x="352" y="-288.8" font-family="Helvetica,sans-Serif" font-size="9.00">index.js</text>
</a>
</g>
</g>
<!-- src/Routes.js&#45;&gt;src/components/Stats/index.js -->
<g id="edge12" class="edge">
<title>src/Routes.js&#45;&gt;src/components/Stats/index.js</title>
<path fill="none" stroke="#000000" stroke-width="2" stroke-opacity="0.200000" d="M294.5,-276.2C302.28,-278.24 310.82,-280.48 318.84,-282.58"/>
<polygon fill="#000000" fill-opacity="0.200000" stroke="#000000" stroke-width="2" stroke-opacity="0.200000" points="318.52,-284.67 324.86,-284.15 319.59,-280.6 318.52,-284.67"/>
</g>
<!-- src/history.js -->
<g id="node14" class="node">
<title>src/history.js</title>
<g id="a_node14"><a xlink:href="src/history.js" xlink:title="history.js">
<path fill="#ffffcc" stroke="black" d="M763,-192C763,-192 719,-192 719,-192 716,-192 713,-189 713,-186 713,-186 713,-180 713,-180 713,-177 716,-174 719,-174 719,-174 763,-174 763,-174 766,-174 769,-177 769,-180 769,-180 769,-186 769,-186 769,-189 766,-192 763,-192"/>
<text text-anchor="middle" x="741" y="-180.8" font-family="Helvetica,sans-Serif" font-size="9.00">history.js</text>
</a>
</g>
</g>
<!-- src/Routes.js&#45;&gt;src/history.js -->
<g id="edge13" class="edge">
<title>src/Routes.js&#45;&gt;src/history.js</title>
<path fill="none" stroke="#000000" stroke-width="2" stroke-opacity="0.200000" d="M267.8,-259.78C270.96,-225.1 283.66,-103.02 308,-74 353.03,-20.31 384.93,-17 455,-17 455,-17 455,-17 560.5,-17 649.1,-17 712.55,-127.36 732.96,-168.11"/>
<polygon fill="#000000" fill-opacity="0.200000" stroke="#000000" stroke-width="2" stroke-opacity="0.200000" points="731.13,-169.14 735.66,-173.6 734.9,-167.29 731.13,-169.14"/>
</g>
<!-- src/App.test.js -->
<g id="node5" class="node">
<title>src/App.test.js</title>
<g id="a_node5"><a xlink:href="src/App.test.js" xlink:title="App.test.js">
<path fill="#ffffcc" stroke="black" d="M75,-513C75,-513 22,-513 22,-513 19,-513 16,-510 16,-507 16,-507 16,-501 16,-501 16,-498 19,-495 22,-495 22,-495 75,-495 75,-495 78,-495 81,-498 81,-501 81,-501 81,-507 81,-507 81,-510 78,-513 75,-513"/>
<text text-anchor="middle" x="48.5" y="-501.8" font-family="Helvetica,sans-Serif" font-size="9.00">App.test.js</text>
</a>
</g>
</g>
<!-- src/App.test.js&#45;&gt;src/App.js -->
<g id="edge4" class="edge">
<title>src/App.test.js&#45;&gt;src/App.js</title>
<path fill="none" stroke="#000000" stroke-width="2" stroke-opacity="0.200000" d="M81.02,-504C94.23,-504 109.59,-504 122.92,-504"/>
<polygon fill="#000000" fill-opacity="0.200000" stroke="#000000" stroke-width="2" stroke-opacity="0.200000" points="123.28,-506.1 129.28,-504 123.28,-501.9 123.28,-506.1"/>
</g>
<!-- src/components/Panel/index.js -->
<g id="node15" class="node">
<title>src/components/Panel/index.js</title>
<g id="a_node15"><a xlink:href="src/components/Panel/index.js" xlink:title="index.js">
<path fill="#ffffcc" stroke="black" d="M580.5,-240C580.5,-240 538.5,-240 538.5,-240 535.5,-240 532.5,-237 532.5,-234 532.5,-234 532.5,-228 532.5,-228 532.5,-225 535.5,-222 538.5,-222 538.5,-222 580.5,-222 580.5,-222 583.5,-222 586.5,-225 586.5,-228 586.5,-228 586.5,-234 586.5,-234 586.5,-237 583.5,-240 580.5,-240"/>
<text text-anchor="middle" x="559.5" y="-228.8" font-family="Helvetica,sans-Serif" font-size="9.00">index.js</text>
</a>
</g>
</g>
<!-- src/components/Config/index.js&#45;&gt;src/components/Panel/index.js -->
<g id="edge14" class="edge">
<title>src/components/Config/index.js&#45;&gt;src/components/Panel/index.js</title>
<path fill="none" stroke="#000000" stroke-width="2" stroke-opacity="0.200000" d="M483.14,-231C496.28,-231 512.33,-231 526.23,-231"/>
<polygon fill="#000000" fill-opacity="0.200000" stroke="#000000" stroke-width="2" stroke-opacity="0.200000" points="526.45,-233.1 532.45,-231 526.45,-228.9 526.45,-233.1"/>
</g>
<!-- src/components/Examen/index.js&#45;&gt;src/components/Panel/index.js -->
<g id="edge15" class="edge">
<title>src/components/Examen/index.js&#45;&gt;src/components/Panel/index.js</title>
<path fill="none" stroke="#000000" stroke-width="2" stroke-opacity="0.200000" d="M469.48,-60.09C478.56,-67.4 490.39,-78.5 497,-91 523.84,-141.79 483.47,-174.51 521,-218 522.72,-220 524.77,-221.68 527,-223.11"/>
<polygon fill="#000000" fill-opacity="0.200000" stroke="#000000" stroke-width="2" stroke-opacity="0.200000" points="526.2,-225.07 532.48,-226 528.15,-221.35 526.2,-225.07"/>
</g>
<!-- src/components/Game/index.js&#45;&gt;src/history.js -->
<g id="edge16" class="edge">
<title>src/components/Game/index.js&#45;&gt;src/history.js</title>
<path fill="none" stroke="#000000" stroke-width="2" stroke-opacity="0.200000" d="M483.12,-117.64C534.74,-130.78 649.75,-160.04 706.71,-174.53"/>
<polygon fill="#000000" fill-opacity="0.200000" stroke="#000000" stroke-width="2" stroke-opacity="0.200000" points="706.37,-176.61 712.7,-176.06 707.41,-172.54 706.37,-176.61"/>
</g>
<!-- src/components/Game/index.js&#45;&gt;src/components/Panel/index.js -->
<g id="edge17" class="edge">
<title>src/components/Game/index.js&#45;&gt;src/components/Panel/index.js</title>
<path fill="none" stroke="#000000" stroke-width="2" stroke-opacity="0.200000" d="M468.56,-120.1C477.4,-127.58 489.33,-138.89 497,-151 513.93,-177.72 498.52,-195.75 521,-218 522.67,-219.65 524.55,-221.09 526.57,-222.35"/>
<polygon fill="#000000" fill-opacity="0.200000" stroke="#000000" stroke-width="2" stroke-opacity="0.200000" points="525.86,-224.35 532.15,-225.27 527.81,-220.62 525.86,-224.35"/>
</g>
<!-- src/components/Home/index.js&#45;&gt;src/components/Panel/index.js -->
<g id="edge18" class="edge">
<title>src/components/Home/index.js&#45;&gt;src/components/Panel/index.js</title>
<path fill="none" stroke="#000000" stroke-width="2" stroke-opacity="0.200000" d="M379.22,-358.06C415.79,-367.19 479.58,-380.33 497,-366 539.68,-330.9 484.74,-285.7 521,-244 522.68,-242.07 524.66,-240.43 526.82,-239.03"/>
<polygon fill="#000000" fill-opacity="0.200000" stroke="#000000" stroke-width="2" stroke-opacity="0.200000" points="527.83,-240.87 532.12,-236.18 525.84,-237.17 527.83,-240.87"/>
</g>
<!-- src/components/Home/left.js -->
<g id="node16" class="node">
<title>src/components/Home/left.js</title>
<g id="a_node16"><a xlink:href="src/components/Home/left.js" xlink:title="left.js">
<path fill="#ffffcc" stroke="black" d="M477,-360C477,-360 435,-360 435,-360 432,-360 429,-357 429,-354 429,-354 429,-348 429,-348 429,-345 432,-342 435,-342 435,-342 477,-342 477,-342 480,-342 483,-345 483,-348 483,-348 483,-354 483,-354 483,-357 480,-360 477,-360"/>
<text text-anchor="middle" x="456" y="-348.8" font-family="Helvetica,sans-Serif" font-size="9.00">left.js</text>
</a>
</g>
</g>
<!-- src/components/Home/index.js&#45;&gt;src/components/Home/left.js -->
<g id="edge19" class="edge">
<title>src/components/Home/index.js&#45;&gt;src/components/Home/left.js</title>
<path fill="none" stroke="#000000" stroke-width="2" stroke-opacity="0.200000" d="M379,-351C392.21,-351 408.38,-351 422.41,-351"/>
<polygon fill="#000000" fill-opacity="0.200000" stroke="#000000" stroke-width="2" stroke-opacity="0.200000" points="422.69,-353.1 428.69,-351 422.69,-348.9 422.69,-353.1"/>
</g>
<!-- src/components/Leaderboard/index.js&#45;&gt;src/components/Panel/index.js -->
<g id="edge21" class="edge">
<title>src/components/Leaderboard/index.js&#45;&gt;src/components/Panel/index.js</title>
<path fill="none" stroke="#000000" stroke-width="2" stroke-opacity="0.200000" d="M467.22,-180.03C479.34,-190.36 500.5,-207.23 521,-218 522.77,-218.93 524.62,-219.81 526.51,-220.65"/>
<polygon fill="#000000" fill-opacity="0.200000" stroke="#000000" stroke-width="2" stroke-opacity="0.200000" points="525.91,-222.68 532.25,-223.03 527.51,-218.8 525.91,-222.68"/>
</g>
<!-- src/components/Login/index.js&#45;&gt;src/history.js -->
<g id="edge22" class="edge">
<title>src/components/Login/index.js&#45;&gt;src/history.js</title>
<path fill="none" stroke="#000000" stroke-width="2" stroke-opacity="0.200000" d="M379.39,-409.79C445.19,-405.28 617.55,-384.02 705,-284 726.81,-259.06 735.22,-219.78 738.32,-198.3"/>
<polygon fill="#000000" fill-opacity="0.200000" stroke="#000000" stroke-width="2" stroke-opacity="0.200000" points="740.41,-198.46 739.11,-192.24 736.25,-197.91 740.41,-198.46"/>
</g>
<!-- src/store/actions.js -->
<g id="node17" class="node">
<title>src/store/actions.js</title>
<g id="a_node17"><a xlink:href="src/store/actions.js" xlink:title="actions.js">
<path fill="#ffffcc" stroke="black" d="M479.5,-566C479.5,-566 432.5,-566 432.5,-566 429.5,-566 426.5,-563 426.5,-560 426.5,-560 426.5,-554 426.5,-554 426.5,-551 429.5,-548 432.5,-548 432.5,-548 479.5,-548 479.5,-548 482.5,-548 485.5,-551 485.5,-554 485.5,-554 485.5,-560 485.5,-560 485.5,-563 482.5,-566 479.5,-566"/>
<text text-anchor="middle" x="456" y="-554.8" font-family="Helvetica,sans-Serif" font-size="9.00">actions.js</text>
</a>
</g>
</g>
<!-- src/components/Login/index.js&#45;&gt;src/store/actions.js -->
<g id="edge23" class="edge">
<title>src/components/Login/index.js&#45;&gt;src/store/actions.js</title>
<path fill="none" stroke="#000000" stroke-width="2" stroke-opacity="0.200000" d="M379.33,-417.4C382.59,-419.11 385.61,-421.27 388,-424 423.97,-465.16 378.18,-503.59 415,-544 416.62,-545.78 418.49,-547.31 420.51,-548.64"/>
<polygon fill="#000000" fill-opacity="0.200000" stroke="#000000" stroke-width="2" stroke-opacity="0.200000" points="419.88,-550.69 426.16,-551.68 421.87,-546.99 419.88,-550.69"/>
</g>
<!-- src/components/Stats/index.js&#45;&gt;src/components/Panel/index.js -->
<g id="edge28" class="edge">
<title>src/components/Stats/index.js&#45;&gt;src/components/Panel/index.js</title>
<path fill="none" stroke="#000000" stroke-width="2" stroke-opacity="0.200000" d="M371.71,-300.1C401.15,-312.96 458.85,-332.14 497,-306 521.37,-289.3 499.74,-264.52 521,-244 522.69,-242.37 524.59,-240.95 526.61,-239.7"/>
<polygon fill="#000000" fill-opacity="0.200000" stroke="#000000" stroke-width="2" stroke-opacity="0.200000" points="527.85,-241.43 532.21,-236.8 525.92,-237.7 527.85,-241.43"/>
</g>
<!-- src/components/Stats/left.js -->
<g id="node20" class="node">
<title>src/components/Stats/left.js</title>
<g id="a_node20"><a xlink:href="src/components/Stats/left.js" xlink:title="left.js">
<path fill="#ffffcc" stroke="black" d="M477,-300C477,-300 435,-300 435,-300 432,-300 429,-297 429,-294 429,-294 429,-288 429,-288 429,-285 432,-282 435,-282 435,-282 477,-282 477,-282 480,-282 483,-285 483,-288 483,-288 483,-294 483,-294 483,-297 480,-300 477,-300"/>
<text text-anchor="middle" x="456" y="-288.8" font-family="Helvetica,sans-Serif" font-size="9.00">left.js</text>
</a>
</g>
</g>
<!-- src/components/Stats/index.js&#45;&gt;src/components/Stats/left.js -->
<g id="edge29" class="edge">
<title>src/components/Stats/index.js&#45;&gt;src/components/Stats/left.js</title>
<path fill="none" stroke="#000000" stroke-width="2" stroke-opacity="0.200000" d="M379,-291C392.21,-291 408.38,-291 422.41,-291"/>
<polygon fill="#000000" fill-opacity="0.200000" stroke="#000000" stroke-width="2" stroke-opacity="0.200000" points="422.69,-293.1 428.69,-291 422.69,-288.9 422.69,-293.1"/>
</g>
<!-- src/components/Panel/MobileDrawer.js -->
<g id="node18" class="node">
<title>src/components/Panel/MobileDrawer.js</title>
<g id="a_node18"><a xlink:href="src/components/Panel/MobileDrawer.js" xlink:title="MobileDrawer.js">
<path fill="#ffffcc" stroke="black" d="M683,-225C683,-225 609,-225 609,-225 606,-225 603,-222 603,-219 603,-219 603,-213 603,-213 603,-210 606,-207 609,-207 609,-207 683,-207 683,-207 686,-207 689,-210 689,-213 689,-213 689,-219 689,-219 689,-222 686,-225 683,-225"/>
<text text-anchor="middle" x="646" y="-213.8" font-family="Helvetica,sans-Serif" font-size="9.00">MobileDrawer.js</text>
</a>
</g>
</g>
<!-- src/components/Panel/index.js&#45;&gt;src/components/Panel/MobileDrawer.js -->
<g id="edge26" class="edge">
<title>src/components/Panel/index.js&#45;&gt;src/components/Panel/MobileDrawer.js</title>
<path fill="none" stroke="#000000" stroke-width="2" stroke-opacity="0.200000" d="M586.77,-222.14C587.58,-221.96 588.39,-221.79 589.21,-221.62"/>
<polygon fill="#000000" fill-opacity="0.200000" stroke="#000000" stroke-width="2" stroke-opacity="0.200000" points="597.42,-222.17 602.91,-218.97 596.63,-218.05 597.42,-222.17"/>
<polyline fill="none" stroke="#000000" stroke-width="2" stroke-opacity="0.200000" points="597.02,-220.11 594.08,-220.68 "/>
<ellipse fill="none" stroke="#000000" stroke-width="2" stroke-opacity="0.200000" cx="591.72" cy="-221.13" rx="2.4" ry="2.4"/>
</g>
<!-- src/components/Panel/panel.css -->
<g id="node19" class="node">
<title>src/components/Panel/panel.css</title>
<g id="a_node19"><a xlink:href="src/components/Panel/panel.css" xlink:title="panel.css">
<path fill="#ffffcc" stroke="black" d="M669.5,-255C669.5,-255 622.5,-255 622.5,-255 619.5,-255 616.5,-252 616.5,-249 616.5,-249 616.5,-243 616.5,-243 616.5,-240 619.5,-237 622.5,-237 622.5,-237 669.5,-237 669.5,-237 672.5,-237 675.5,-240 675.5,-243 675.5,-243 675.5,-249 675.5,-249 675.5,-252 672.5,-255 669.5,-255"/>
<text text-anchor="middle" x="646" y="-243.8" font-family="Helvetica,sans-Serif" font-size="9.00">panel.css</text>
</a>
</g>
</g>
<!-- src/components/Panel/index.js&#45;&gt;src/components/Panel/panel.css -->
<g id="edge27" class="edge">
<title>src/components/Panel/index.js&#45;&gt;src/components/Panel/panel.css</title>
<path fill="none" stroke="#000000" stroke-width="2" stroke-opacity="0.200000" d="M586.77,-235.66C594.26,-236.99 602.54,-238.46 610.44,-239.87"/>
<polygon fill="#000000" fill-opacity="0.200000" stroke="#000000" stroke-width="2" stroke-opacity="0.200000" points="610.12,-241.94 616.39,-240.92 610.85,-237.81 610.12,-241.94"/>
</g>
<!-- src/components/Home/left.js&#45;&gt;src/components/Panel/index.js -->
<g id="edge20" class="edge">
<title>src/components/Home/left.js&#45;&gt;src/components/Panel/index.js</title>
<path fill="none" stroke="#000000" stroke-width="2" stroke-opacity="0.200000" d="M480.88,-341.84C486.85,-338.57 492.76,-334.34 497,-329 521.42,-298.27 494.07,-272.56 521,-244 522.76,-242.14 524.79,-240.54 526.99,-239.18"/>
<polygon fill="#000000" fill-opacity="0.200000" stroke="#000000" stroke-width="2" stroke-opacity="0.200000" points="528,-241.02 532.35,-236.39 526.06,-237.29 528,-241.02"/>
</g>
<!-- src/store/account/actions.js -->
<g id="node25" class="node">
<title>src/store/account/actions.js</title>
<g id="a_node25"><a xlink:href="src/store/account/actions.js" xlink:title="actions.js">
<path fill="#ffffcc" stroke="black" d="M583,-570C583,-570 536,-570 536,-570 533,-570 530,-567 530,-564 530,-564 530,-558 530,-558 530,-555 533,-552 536,-552 536,-552 583,-552 583,-552 586,-552 589,-555 589,-558 589,-558 589,-564 589,-564 589,-567 586,-570 583,-570"/>
<text text-anchor="middle" x="559.5" y="-558.8" font-family="Helvetica,sans-Serif" font-size="9.00">actions.js</text>
</a>
</g>
</g>
<!-- src/store/actions.js&#45;&gt;src/store/account/actions.js -->
<g id="edge36" class="edge">
<title>src/store/actions.js&#45;&gt;src/store/account/actions.js</title>
<path fill="none" stroke="#000000" stroke-width="2" stroke-opacity="0.200000" d="M485.54,-558.12C497.33,-558.59 511.1,-559.13 523.49,-559.62"/>
<polygon fill="#000000" fill-opacity="0.200000" stroke="#000000" stroke-width="2" stroke-opacity="0.200000" points="523.74,-561.73 529.82,-559.87 523.91,-557.53 523.74,-561.73"/>
</g>
<!-- src/components/Panel/MobileDrawer.js&#45;&gt;src/history.js -->
<g id="edge24" class="edge">
<title>src/components/Panel/MobileDrawer.js&#45;&gt;src/history.js</title>
<path fill="none" stroke="#000000" stroke-width="2" stroke-opacity="0.200000" d="M689.26,-208.09C694.63,-206.63 700,-204.94 705,-203 710.37,-200.92 715.9,-198.11 720.93,-195.26"/>
<polygon fill="#000000" fill-opacity="0.200000" stroke="#000000" stroke-width="2" stroke-opacity="0.200000" points="722.07,-197.03 726.17,-192.18 719.94,-193.41 722.07,-197.03"/>
</g>
<!-- src/components/Panel/MobileDrawer.js&#45;&gt;src/components/Panel/index.js -->
<g id="edge25" class="edge">
<title>src/components/Panel/MobileDrawer.js&#45;&gt;src/components/Panel/index.js</title>
<path fill="none" stroke="#000000" stroke-width="2" stroke-opacity="0.200000" d="M617.87,-225.05C612.42,-226.22 606.59,-227.34 600.8,-228.34"/>
<polygon fill="#000000" fill-opacity="0.200000" stroke="#000000" stroke-width="2" stroke-opacity="0.200000" points="592.38,-227.53 586.77,-230.54 593.03,-231.68 592.38,-227.53"/>
<polyline fill="none" stroke="#000000" stroke-width="2" stroke-opacity="0.200000" points="592.7,-229.61 595.66,-229.15 "/>
<ellipse fill="none" stroke="#000000" stroke-width="2" stroke-opacity="0.200000" cx="598.04" cy="-228.77" rx="2.4" ry="2.4"/>
</g>
<!-- src/components/Stats/left.js&#45;&gt;src/components/Panel/index.js -->
<g id="edge30" class="edge">
<title>src/components/Stats/left.js&#45;&gt;src/components/Panel/index.js</title>
<path fill="none" stroke="#000000" stroke-width="2" stroke-opacity="0.200000" d="M476.45,-281.82C483.23,-278.24 490.71,-273.82 497,-269 509.22,-259.63 508.03,-252.31 521,-244 522.85,-242.82 524.82,-241.72 526.85,-240.72"/>
<polygon fill="#000000" fill-opacity="0.200000" stroke="#000000" stroke-width="2" stroke-opacity="0.200000" points="527.71,-242.64 532.34,-238.27 526,-238.8 527.71,-242.64"/>
</g>
<!-- src/index.js -->
<g id="node21" class="node">
<title>src/index.js</title>
<g id="a_node21"><a xlink:href="src/index.js" xlink:title="index.js">
<path fill="#ffffcc" stroke="black" d="M69.5,-554C69.5,-554 27.5,-554 27.5,-554 24.5,-554 21.5,-551 21.5,-548 21.5,-548 21.5,-542 21.5,-542 21.5,-539 24.5,-536 27.5,-536 27.5,-536 69.5,-536 69.5,-536 72.5,-536 75.5,-539 75.5,-542 75.5,-542 75.5,-548 75.5,-548 75.5,-551 72.5,-554 69.5,-554"/>
<text text-anchor="middle" x="48.5" y="-542.8" font-family="Helvetica,sans-Serif" font-size="9.00">index.js</text>
</a>
</g>
</g>
<!-- src/index.js&#45;&gt;src/App.js -->
<g id="edge31" class="edge">
<title>src/index.js&#45;&gt;src/App.js</title>
<path fill="none" stroke="#000000" stroke-width="2" stroke-opacity="0.200000" d="M73.02,-535.9C88.67,-529.85 109.34,-521.85 126.07,-515.38"/>
<polygon fill="#000000" fill-opacity="0.200000" stroke="#000000" stroke-width="2" stroke-opacity="0.200000" points="127.2,-517.2 132.04,-513.07 125.69,-513.28 127.2,-517.2"/>
</g>
<!-- src/registerServiceWorker.js -->
<g id="node22" class="node">
<title>src/registerServiceWorker.js</title>
<g id="a_node22"><a xlink:href="src/registerServiceWorker.js" xlink:title="registerServiceWorker.js">
<path fill="#ffffcc" stroke="black" d="M213,-576C213,-576 100,-576 100,-576 97,-576 94,-573 94,-570 94,-570 94,-564 94,-564 94,-561 97,-558 100,-558 100,-558 213,-558 213,-558 216,-558 219,-561 219,-564 219,-564 219,-570 219,-570 219,-573 216,-576 213,-576"/>
<text text-anchor="middle" x="156.5" y="-564.8" font-family="Helvetica,sans-Serif" font-size="9.00">registerServiceWorker.js</text>
</a>
</g>
</g>
<!-- src/index.js&#45;&gt;src/registerServiceWorker.js -->
<g id="edge32" class="edge">
<title>src/index.js&#45;&gt;src/registerServiceWorker.js</title>
<path fill="none" stroke="#000000" stroke-width="2" stroke-opacity="0.200000" d="M75.7,-550.44C84.82,-552.33 95.38,-554.52 105.78,-556.68"/>
<polygon fill="#000000" fill-opacity="0.200000" stroke="#000000" stroke-width="2" stroke-opacity="0.200000" points="105.56,-558.78 111.86,-557.94 106.41,-554.67 105.56,-558.78"/>
</g>
<!-- src/store/index.js -->
<g id="node23" class="node">
<title>src/store/index.js</title>
<g id="a_node23"><a xlink:href="src/store/index.js" xlink:title="index.js">
<path fill="#ffffcc" stroke="black" d="M373,-577C373,-577 331,-577 331,-577 328,-577 325,-574 325,-571 325,-571 325,-565 325,-565 325,-562 328,-559 331,-559 331,-559 373,-559 373,-559 376,-559 379,-562 379,-565 379,-565 379,-571 379,-571 379,-574 376,-577 373,-577"/>
<text text-anchor="middle" x="352" y="-565.8" font-family="Helvetica,sans-Serif" font-size="9.00">index.js</text>
</a>
</g>
</g>
<!-- src/index.js&#45;&gt;src/store/index.js -->
<g id="edge33" class="edge">
<title>src/index.js&#45;&gt;src/store/index.js</title>
<path fill="none" stroke="#000000" stroke-width="2" stroke-opacity="0.200000" d="M75.67,-545.44C109.01,-546.14 168.36,-547.89 219,-552 253.08,-554.76 291.92,-559.69 318.59,-563.34"/>
<polygon fill="#000000" fill-opacity="0.200000" stroke="#000000" stroke-width="2" stroke-opacity="0.200000" points="318.53,-565.46 324.77,-564.2 319.11,-561.3 318.53,-565.46"/>
</g>
<!-- src/store/reducers.js -->
<g id="node27" class="node">
<title>src/store/reducers.js</title>
<g id="a_node27"><a xlink:href="src/store/reducers.js" xlink:title="reducers.js">
<path fill="#ffffcc" stroke="black" d="M483,-598C483,-598 429,-598 429,-598 426,-598 423,-595 423,-592 423,-592 423,-586 423,-586 423,-583 426,-580 429,-580 429,-580 483,-580 483,-580 486,-580 489,-583 489,-586 489,-586 489,-592 489,-592 489,-595 486,-598 483,-598"/>
<text text-anchor="middle" x="456" y="-586.8" font-family="Helvetica,sans-Serif" font-size="9.00">reducers.js</text>
</a>
</g>
</g>
<!-- src/store/index.js&#45;&gt;src/store/reducers.js -->
<g id="edge37" class="edge">
<title>src/store/index.js&#45;&gt;src/store/reducers.js</title>
<path fill="none" stroke="#000000" stroke-width="2" stroke-opacity="0.200000" d="M379,-573.35C390.47,-575.71 404.17,-578.53 416.76,-581.13"/>
<polygon fill="#000000" fill-opacity="0.200000" stroke="#000000" stroke-width="2" stroke-opacity="0.200000" points="416.54,-583.23 422.84,-582.38 417.39,-579.11 416.54,-583.23"/>
</g>
<!-- src/store/account/actionType.js -->
<g id="node24" class="node">
<title>src/store/account/actionType.js</title>
<g id="a_node24"><a xlink:href="src/store/account/actionType.js" xlink:title="actionType.js">
<path fill="#ffffcc" stroke="black" d="M677,-585C677,-585 615,-585 615,-585 612,-585 609,-582 609,-579 609,-579 609,-573 609,-573 609,-570 612,-567 615,-567 615,-567 677,-567 677,-567 680,-567 683,-570 683,-573 683,-573 683,-579 683,-579 683,-582 680,-585 677,-585"/>
<text text-anchor="middle" x="646" y="-573.8" font-family="Helvetica,sans-Serif" font-size="9.00">actionType.js</text>
</a>
</g>
</g>
<!-- src/store/account/actions.js&#45;&gt;src/store/account/actionType.js -->
<g id="edge34" class="edge">
<title>src/store/account/actions.js&#45;&gt;src/store/account/actionType.js</title>
<path fill="none" stroke="#000000" stroke-width="2" stroke-opacity="0.200000" d="M589.11,-566.08C593.45,-566.85 598.01,-567.66 602.58,-568.47"/>
<polygon fill="#000000" fill-opacity="0.200000" stroke="#000000" stroke-width="2" stroke-opacity="0.200000" points="602.51,-570.59 608.78,-569.57 603.24,-566.45 602.51,-570.59"/>
</g>
<!-- src/store/account/reducer.js -->
<g id="node26" class="node">
<title>src/store/account/reducer.js</title>
<g id="a_node26"><a xlink:href="src/store/account/reducer.js" xlink:title="reducer.js">
<path fill="#ffffcc" stroke="black" d="M584,-600C584,-600 535,-600 535,-600 532,-600 529,-597 529,-594 529,-594 529,-588 529,-588 529,-585 532,-582 535,-582 535,-582 584,-582 584,-582 587,-582 590,-585 590,-588 590,-588 590,-594 590,-594 590,-597 587,-600 584,-600"/>
<text text-anchor="middle" x="559.5" y="-588.8" font-family="Helvetica,sans-Serif" font-size="9.00">reducer.js</text>
</a>
</g>
</g>
<!-- src/store/account/reducer.js&#45;&gt;src/store/account/actionType.js -->
<g id="edge35" class="edge">
<title>src/store/account/reducer.js&#45;&gt;src/store/account/actionType.js</title>
<path fill="none" stroke="#000000" stroke-width="2" stroke-opacity="0.200000" d="M590.05,-585.75C594.24,-585.01 598.61,-584.23 602.98,-583.46"/>
<polygon fill="#000000" fill-opacity="0.200000" stroke="#000000" stroke-width="2" stroke-opacity="0.200000" points="603.38,-585.52 608.92,-582.4 602.64,-581.39 603.38,-585.52"/>
</g>
<!-- src/store/reducers.js&#45;&gt;src/store/account/reducer.js -->
<g id="edge38" class="edge">
<title>src/store/reducers.js&#45;&gt;src/store/account/reducer.js</title>
<path fill="none" stroke="#000000" stroke-width="2" stroke-opacity="0.200000" d="M489.12,-589.63C499.7,-589.84 511.54,-590.07 522.4,-590.29"/>
<polygon fill="#000000" fill-opacity="0.200000" stroke="#000000" stroke-width="2" stroke-opacity="0.200000" points="522.62,-592.39 528.66,-590.41 522.71,-588.19 522.62,-592.39"/>
</g>
</g>
</svg>
